<svg xmlns="http://www.w3.org/2000/svg" viewBox="0 0 48 48">
  <path fill="#035d3b" d="m35.76 26.36h.01s-3.77 5.53-6.94 9.64c-2.74 3.55-3.54 6.59-3.77 8.06-.09.54-.53.94-1.06.94s-.97-.4-1.06-.94c-.23-1.47-1.03-4.51-3.77-8.06-.42-.55-.85-1.12-1.28-1.7L28.24 22l8.33-9.88A14.4 14.4 0 0 1 38 18.5c0 2.9-.83 5.59-2.24 7.86z"/>
  <path fill="#daff08" d="M13.27 9.2A14.42 14.42 0 0 0 10 18.5c0 2.29.52 4.45 1.44 6.38.23.51.5 1 .8 1.48h-.01s2.84 4.16 5.66 7.94L28.15 22.11A5.48 5.48 0 0 1 24 24a5.5 5.5 0 0 1-5.5-5.5c0-1.33.47-2.55 1.26-3.5l.07-.08z"/>
  <path fill="#089bff" d="M24 4c-4.31 0-8.17 2.02-10.73 5.2l6.56 5.72.02-.03.05-.06.01-.01A5.46 5.46 0 0 1 24 13a5.5 5.5 0 0 1 5.5 5.5c0 1.33-.47 2.55-1.26 3.5l8.33-9.88A14.47 14.47 0 0 0 28.4 4.74 14.56 14.56 0 0 0 24 4z"/>
</svg>